<svg width="138" height="51" viewBox="0 0 138 51" fill="none" xmlns="http://www.w3.org/2000/svg">
<g clip-path="url(#clip0_115_423)">
<path d="M133.158 0H4.84211C2.16788 0 0 2.17462 0 4.85714V46.1429C0 48.8254 2.16788 51 4.84211 51H133.158C135.832 51 138 48.8254 138 46.1429V4.85714C138 2.17462 135.832 0 133.158 0Z" fill="#F0F2F5"/>
<path d="M47.0459 33.0577C45.7159 33.0577 44.5925 32.7599 43.6758 32.164C42.7591 31.5682 42.107 30.7457 41.7196 29.6966L44.0051 28.356C44.5344 29.7419 45.5739 30.4349 47.1234 30.4349C47.8464 30.4349 48.3888 30.3053 48.7503 30.0463C49.1119 29.7873 49.2927 29.4376 49.2927 28.9972C49.2927 28.5179 49.0796 28.1487 48.6535 27.8897C48.2274 27.6177 47.4656 27.3263 46.368 27.0154C45.1801 26.6527 44.2439 26.2319 43.5596 25.7526C42.7074 25.1179 42.2813 24.1853 42.2813 22.9549C42.2813 21.7114 42.7138 20.7336 43.579 20.0212C44.4441 19.2829 45.4964 18.9137 46.736 18.9137C47.8207 18.9137 48.7827 19.1793 49.6219 19.7103C50.4612 20.2413 51.1133 20.9926 51.5781 21.964L49.3314 23.2657C48.7891 22.1 47.9239 21.5172 46.736 21.5172C46.1937 21.5172 45.7612 21.6467 45.4383 21.9057C45.1155 22.1519 44.9541 22.4756 44.9541 22.8772C44.9541 23.3046 45.1284 23.6543 45.4771 23.9263C45.8644 24.1983 46.5488 24.4833 47.5301 24.7812L48.4598 25.092C48.6277 25.1439 48.9182 25.2539 49.3314 25.4223C49.7188 25.5647 50.0029 25.7007 50.1836 25.8303C50.8163 26.2189 51.2425 26.6204 51.4619 27.0349C51.7976 27.5789 51.9655 28.22 51.9655 28.9583C51.9655 30.2147 51.5071 31.212 50.5903 31.9503C49.6736 32.6886 48.4921 33.0577 47.0459 33.0577ZM65.0222 31.0177C63.6535 32.3777 61.9878 33.0577 60.0252 33.0577C58.0626 33.0577 56.3969 32.3777 55.0281 31.0177C53.6723 29.6319 52.9944 27.9544 52.9944 25.9857C52.9944 24.004 53.6723 22.3332 55.0281 20.9732C56.3969 19.6002 58.0626 18.9137 60.0252 18.9137C61.9878 18.9137 63.6535 19.6002 65.0222 20.9732C66.391 22.3332 67.0753 24.004 67.0753 25.9857C67.0753 27.9674 66.391 29.6447 65.0222 31.0177ZM56.9069 29.1914C57.7333 30.0204 58.7726 30.4349 60.0252 30.4349C61.2777 30.4349 62.3171 30.0204 63.1435 29.1914C63.9828 28.3496 64.4024 27.281 64.4024 25.9857C64.4024 24.6904 63.9828 23.6219 63.1435 22.78C62.3042 21.9381 61.2648 21.5172 60.0252 21.5172C58.7856 21.5172 57.7461 21.9381 56.9069 22.78C56.0676 23.6219 55.6479 24.6904 55.6479 25.9857C55.6479 27.281 56.0676 28.3496 56.9069 29.1914ZM80.3619 31.0177C78.9932 32.3777 77.3275 33.0577 75.3648 33.0577C73.4021 33.0577 71.7364 32.3777 70.3678 31.0177C69.012 29.6319 68.3341 27.9544 68.3341 25.9857C68.3341 24.004 69.012 22.3332 70.3678 20.9732C71.7364 19.6002 73.4021 18.9137 75.3648 18.9137C77.3275 18.9137 78.9932 19.6002 80.3619 20.9732C81.7305 22.3332 82.415 24.004 82.415 25.9857C82.415 27.9674 81.7305 29.6447 80.3619 31.0177ZM72.2465 29.1914C73.0728 30.0204 74.1123 30.4349 75.3648 30.4349C76.6173 30.4349 77.6567 30.0204 78.4832 29.1914C79.3224 28.3496 79.7421 27.281 79.7421 25.9857C79.7421 24.6904 79.3224 23.6219 78.4832 22.78C77.6438 21.9381 76.6044 21.5172 75.3648 21.5172C74.1253 21.5172 73.0858 21.9381 72.2465 22.78C71.4072 23.6219 70.9876 24.6904 70.9876 25.9857C70.9876 27.281 71.4072 28.3496 72.2465 29.1914ZM92.1378 27.4817V19.1857H94.8106V32.7857H92.7769L86.9664 24.4703V32.7857H84.2936V19.1857H86.3272L92.1378 27.4817Z" fill="black"/>
</g>
<defs>
<clipPath id="clip0_115_423">
<rect width="138" height="51" fill="white"/>
</clipPath>
</defs>
</svg>
