<svg width="32" height="32" viewBox="0 0 32 32" fill="none" xmlns="http://www.w3.org/2000/svg">
<path d="M26.6666 26.6667V17.3333M16 26.6667V13.3333M5.33331 26.6667L5.33331 21.3333M17.8755 6.70334L24.7668 9.28756M14.3983 7.20123L6.93362 12.7998M28.0809 8.58579C28.8619 9.36683 28.8619 10.6332 28.0809 11.4142C27.2998 12.1953 26.0335 12.1953 25.2524 11.4142C24.4714 10.6332 24.4714 9.36683 25.2524 8.58579C26.0335 7.80474 27.2998 7.80474 28.0809 8.58579ZM6.74753 12.5858C7.52857 13.3668 7.52857 14.6332 6.74753 15.4142C5.96648 16.1953 4.70015 16.1953 3.9191 15.4142C3.13805 14.6332 3.13805 13.3668 3.9191 12.5858C4.70015 11.8047 5.96648 11.8047 6.74753 12.5858ZM17.4142 4.58579C18.1952 5.36683 18.1952 6.63316 17.4142 7.41421C16.6331 8.19526 15.3668 8.19526 14.5858 7.41421C13.8047 6.63316 13.8047 5.36683 14.5858 4.58579C15.3668 3.80474 16.6331 3.80474 17.4142 4.58579Z" stroke="white" stroke-width="2" stroke-linecap="round" stroke-linejoin="round"/>
</svg>
