<svg width="23" height="29" viewBox="0 0 23 29" fill="none" xmlns="http://www.w3.org/2000/svg">
<path d="M18.6316 15.2732C18.6589 13.1185 19.794 11.0796 21.5947 9.951C20.4587 8.29705 18.556 7.24839 16.5763 7.18525C14.4649 6.95931 12.418 8.47326 11.342 8.47326C10.2452 8.47326 8.58865 7.20768 6.80478 7.24509C4.47957 7.32168 2.3119 8.66936 1.18064 10.7417C-1.25112 15.0338 0.562755 21.3417 2.89218 24.8111C4.05764 26.51 5.41973 28.4076 7.20199 28.3403C8.94605 28.2666 9.59742 27.2066 11.7026 27.2066C13.7883 27.2066 14.3994 28.3403 16.2179 28.2975C18.0893 28.2666 19.2684 26.5911 20.393 24.8762C21.2304 23.6657 21.8747 22.3278 22.3022 20.9121C20.1029 19.9639 18.6342 17.7075 18.6316 15.2732Z" fill="white"/>
<path d="M15.1969 4.90361C16.2173 3.65485 16.72 2.04978 16.5983 0.42926C15.0393 0.59618 13.5993 1.35573 12.5652 2.55658C11.5539 3.72987 11.0276 5.3067 11.1271 6.86528C12.6866 6.88165 14.2197 6.14268 15.1969 4.90361Z" fill="white"/>
</svg>
