<svg width="348" height="140" viewBox="0 0 348 140" fill="none" xmlns="http://www.w3.org/2000/svg">
<rect x="0.5" y="0.5" width="347" height="139" rx="5.5" fill="#151926" stroke="#1D243A"/>
<path d="M347.5 84.5394V134C347.5 137.037 345.038 139.5 342 139.5H5.99999C2.96243 139.5 0.5 137.037 0.5 134V82.6847C0.503529 82.6807 0.507139 82.6766 0.510832 82.6724C0.59705 82.574 0.727974 82.4278 0.903599 82.2407C1.25487 81.8665 1.78482 81.3288 2.49338 80.6818C3.9107 79.3878 6.04138 77.6581 8.88497 75.9272C14.5702 72.4666 23.1064 69.0001 34.5 69.0001C51.4578 69.0001 61.8037 80.5109 72.2112 92.0904C72.3633 92.2595 72.5154 92.4287 72.6675 92.5979C83.174 104.283 93.8491 115.872 111.539 114.499C126.125 113.366 134.629 102.552 142.755 92.2202C143.059 91.8331 143.363 91.4467 143.667 91.0615C152.135 80.3179 160.412 70.5191 174.949 71.9975C183.051 72.8214 188.386 76.6794 193.784 80.8107C194.023 80.9934 194.262 81.1766 194.501 81.3602C199.663 85.3201 205.001 89.4159 212.902 90.9904C230.008 94.399 240.117 83.8869 249.425 73.7417C249.665 73.4799 249.905 73.2183 250.144 72.9572C254.564 68.1335 258.83 63.4783 263.648 60.3821C268.696 57.1388 274.332 55.6199 281.372 57.4834C287.433 59.0876 291.772 63.2257 295.219 68.5357C298.56 73.6809 301.03 79.8752 303.409 85.8404L303.65 86.4454C306.091 92.562 308.472 98.4188 311.64 102.436C313.231 104.454 315.04 106.035 317.182 106.951C319.331 107.87 321.776 108.104 324.606 107.489C327.957 106.76 331.119 104.82 333.964 102.361C336.812 99.8996 339.369 96.8939 341.51 93.9897C343.653 91.0839 345.386 88.2687 346.584 86.1806C346.937 85.5653 347.243 85.0129 347.5 84.5394Z" fill="url(#paint0_linear_121_398)" stroke="#1D243A"/>
<defs>
<linearGradient id="paint0_linear_121_398" x1="174" y1="68.5" x2="174" y2="140" gradientUnits="userSpaceOnUse">
<stop stop-color="#1A2730"/>
<stop offset="1" stop-color="#1A2730" stop-opacity="0"/>
</linearGradient>
</defs>
</svg>
