<svg width="32" height="32" viewBox="0 0 32 32" fill="none" xmlns="http://www.w3.org/2000/svg">
<path d="M16.0001 2.66663C17.751 2.66663 19.4849 3.0115 21.1025 3.68157C22.7202 4.35163 24.1901 5.33376 25.4282 6.57187C26.6663 7.80999 27.6484 9.27984 28.3185 10.8975C28.9885 12.5152 29.3334 14.249 29.3334 16M16.0001 2.66663V16M16.0001 2.66663C8.63628 2.66663 2.66675 8.63616 2.66675 16C2.66675 23.3638 8.63628 29.3333 16.0001 29.3333C23.3639 29.3333 29.3334 23.3638 29.3334 16M16.0001 2.66663C23.3639 2.66663 29.3334 8.63617 29.3334 16M29.3334 16L16.0001 16M29.3334 16C29.3334 18.1041 28.8354 20.1784 27.8802 22.0532C26.9249 23.928 25.5395 25.5501 23.8372 26.7869L16.0001 16" stroke="#374160" stroke-width="2" stroke-linecap="round" stroke-linejoin="round"/>
</svg>
