<svg width="32" height="32" viewBox="0 0 32 32" fill="none" xmlns="http://www.w3.org/2000/svg">
<path d="M16.0001 21.3333V28M16.0001 21.3333L24.0001 28M16.0001 21.3333L8.00008 28M28.0001 4V14.9333C28.0001 17.1735 28.0001 18.2936 27.5641 19.1493C27.1806 19.9019 26.5687 20.5139 25.816 20.8974C24.9604 21.3333 23.8403 21.3333 21.6001 21.3333H10.4001C8.15987 21.3333 7.03977 21.3333 6.18412 20.8974C5.43147 20.5139 4.81955 19.9019 4.43606 19.1493C4.00008 18.2936 4.00008 17.1735 4.00008 14.9333V4M10.6667 12V16M16.0001 9.33333V16M21.3334 14.6667V16M29.3334 4H2.66675" stroke="#374160" stroke-width="2" stroke-linecap="round" stroke-linejoin="round"/>
</svg>
