<svg width="26" height="26" viewBox="0 0 26 26" fill="none" xmlns="http://www.w3.org/2000/svg">
<path d="M12.2228 3.74108C12.4725 3.23523 12.5974 2.9823 12.7669 2.90149C12.9143 2.83119 13.0856 2.83119 13.2331 2.90149C13.4026 2.9823 13.5274 3.23523 13.7771 3.74108L16.146 8.54021C16.2197 8.68955 16.2566 8.76422 16.3105 8.82219C16.3582 8.87352 16.4154 8.91512 16.4789 8.94466C16.5506 8.97803 16.633 8.99007 16.7978 9.01416L22.0967 9.78867C22.6547 9.87023 22.9337 9.91101 23.0628 10.0473C23.1751 10.1659 23.228 10.3288 23.2066 10.4907C23.182 10.6769 22.98 10.8736 22.5761 11.2671L18.7432 15.0003C18.6237 15.1166 18.564 15.1748 18.5254 15.2441C18.4913 15.3054 18.4694 15.3727 18.4609 15.4424C18.4514 15.521 18.4655 15.6032 18.4937 15.7676L19.3981 21.0406C19.4935 21.5968 19.5412 21.8748 19.4515 22.0399C19.3735 22.1834 19.2349 22.2841 19.0743 22.3139C18.8896 22.3481 18.6399 22.2168 18.1405 21.9542L13.4034 19.463C13.2558 19.3854 13.182 19.3465 13.1042 19.3313C13.0354 19.3178 12.9646 19.3178 12.8957 19.3313C12.818 19.3465 12.7442 19.3854 12.5966 19.463L7.85946 21.9542C7.36003 22.2168 7.11032 22.3481 6.92568 22.3139C6.76503 22.2841 6.62641 22.1834 6.54842 22.0399C6.45879 21.8748 6.50649 21.5968 6.60187 21.0406L7.50625 15.7676C7.53445 15.6032 7.54854 15.521 7.53901 15.4424C7.53056 15.3727 7.50866 15.3054 7.47453 15.2441C7.43598 15.1748 7.37624 15.1166 7.25676 15.0003L3.4239 11.2671C3.01993 10.8736 2.81794 10.6769 2.79336 10.4907C2.77198 10.3288 2.82481 10.1659 2.93715 10.0473C3.06626 9.91101 3.34526 9.87023 3.90326 9.78867L9.20213 9.01416C9.36692 8.99007 9.44931 8.97803 9.52107 8.94466C9.5846 8.91512 9.6418 8.87352 9.68949 8.82219C9.74336 8.76422 9.78022 8.68955 9.85393 8.54021L12.2228 3.74108Z" stroke="#374160" stroke-width="2" stroke-linecap="round" stroke-linejoin="round"/>
</svg>
